<?xml version="1.0" encoding="UTF-8" standalone="no"?>
<!-- Created with Inkscape (http://www.inkscape.org/) -->

<svg
   width="818.18597"
   height="82.065002"
   viewBox="0 0 216.47837 21.713032"
   version="1.1"
   id="svg1"
   inkscape:version="1.3-beta (cedbd6c6ff, 2023-05-28)"
   sodipodi:docname="HB_Logotype_BlackFlecks.svg"
   xmlns:inkscape="http://www.inkscape.org/namespaces/inkscape"
   xmlns:sodipodi="http://sodipodi.sourceforge.net/DTD/sodipodi-0.dtd"
   xmlns="http://www.w3.org/2000/svg"
   xmlns:svg="http://www.w3.org/2000/svg">
  <sodipodi:namedview
     id="namedview1"
     pagecolor="#505050"
     bordercolor="#eeeeee"
     borderopacity="1"
     inkscape:showpageshadow="0"
     inkscape:pageopacity="0"
     inkscape:pagecheckerboard="0"
     inkscape:deskcolor="#505050"
     inkscape:document-units="px"
     inkscape:zoom="0.5946522"
     inkscape:cx="304.3796"
     inkscape:cy="147.98566"
     inkscape:window-width="1600"
     inkscape:window-height="930"
     inkscape:window-x="-6"
     inkscape:window-y="-6"
     inkscape:window-maximized="1"
     inkscape:current-layer="layer1" />
  <defs
     id="defs1" />
  <g
     inkscape:label="Layer 1"
     inkscape:groupmode="layer"
     id="layer1">
    <path
       id="path2110-7-8-4-9-3-3-9-7-8-85-6-1-7-2-7-9-9-1"
       style="display:inline;fill:none;stroke:#ffffff;stroke-width:3.48857;stroke-linecap:round;stroke-linejoin:round;stroke-miterlimit:4;stroke-dasharray:none;stroke-opacity:1"
       d="M 81.4734,1.7443153 V 19.968303 M 205.62207,1.7443153 V 19.968215 h 9.1119 M 183.41189,1.7443153 V 19.968215 h 9.11196 m -31.32206,-9.112341 h 6.20473 m 2.90718,9.11176 h -9.11191 V 1.7443153 h 9.11191 m -30.75315,9.1115587 h 3.98687 c 3.41709,0 5.12564,2.277839 5.12564,4.55623 0,2.277664 -1.70855,4.55553 -5.12564,4.55553 h -3.98687 V 1.7443153 h 3.98687 c 3.41709,0 5.12564,2.2776651 5.12564,4.5560561 0,2.2778381 -1.70855,4.5555026 -5.12564,4.5555026 h -3.98687 m -16.71125,0.0587 h 3.0441 v 3.928714 c 0,3.416959 -2.27807,5.125456 -4.55553,5.125456 -2.27804,0 -4.55611,-1.708497 -4.55611,-5.125456 V 10.856431 6.8696892 c 0,-3.4169316 2.27807,-5.1253979 4.55582,-5.1253979 2.75949,0 4.54304,1.3957839 4.54304,3.3107285 M 94.571898,19.968157 V 1.7442873 L 103.68355,19.968157 V 1.7442873 m -79.728971,0 V 19.968157 M 1.7442873,10.856427 h 9.1118767 m 0,-9.1121397 v 9.1121397 9.11173 M 1.7443153,1.7442873 V 19.968157 M 68.374872,3.4527536 c 0,0 -1.708552,-1.7084663 -4.555826,-1.7084663 -2.847264,0 -4.555796,1.1354025 -4.555796,3.4169326 0,3.4169616 9.111912,7.9731621 9.111912,11.3901511 0,2.282052 -1.708522,3.416902 -4.556116,3.416902 -2.847264,0 -4.556086,-1.708466 -4.556086,-1.708466 M 46.165013,3.4527536 c 0,0 -1.708842,-1.7084663 -4.55611,-1.7084663 -2.847269,0 -4.555823,1.1354025 -4.555823,3.4169326 0,3.4169616 9.111933,7.9731621 9.111933,11.3901511 0,2.282052 -1.708552,3.416902 -4.55611,3.416902 -2.84756,0 -4.556113,-1.708466 -4.556113,-1.708466"
       inkscape:export-filename="..\Logo\HB_Logotype_BlackFlecks.svg"
       inkscape:export-xdpi="96"
       inkscape:export-ydpi="96" />
    <path
       style="fill:#000000;stroke-width:0.187351"
       d="M 1.3705958,20.628554 C 1.0837154,20.436906 1.0288314,20.259625 1.0287434,19.524347 l -7.7e-5,-0.646674 0.7063729,-1.149324 0.706376,-1.149327 0.013,1.815148 c 0.01203,1.678284 0.0062,1.826771 -0.07704,1.969324 -0.2135623,0.36567 -0.6745279,0.487029 -1.0067934,0.26506 z m 9.1235752,7.5e-4 c -0.361699,-0.243751 -0.346949,-0.105096 -0.332643,-3.127119 l 0.01282,-2.707712 0.706374,1.149302 0.706372,1.149304 -7.7e-5,1.538936 c -6.9e-5,1.36621 -0.0098,1.558294 -0.08675,1.71144 -0.189542,0.377259 -0.668519,0.513344 -1.0061,0.285849 z m 52.179834,0.0335 C 61.277373,20.445668 59.772261,19.75444 58.86468,18.913369 58.586559,18.655634 58.498669,18.414095 58.577069,18.12295 c 0.0841,-0.312258 0.353531,-0.504985 0.705581,-0.504679 0.234161,1.87e-4 0.324061,0.04924 0.847311,0.462128 0.878082,0.692893 2.112073,1.134312 3.369695,1.205397 l 0.582741,0.03294 0.36572,0.673955 c 0.308341,0.568218 0.353011,0.679242 0.28473,0.70765 -0.14372,0.0598 -1.604032,0.03317 -2.058842,-0.03754 z m 18.459144,-0.01221 c -0.10731,-0.05618 -0.21496,-0.172786 -0.28425,-0.307925 -0.10865,-0.211894 -0.11153,-0.257546 -0.11153,-1.768792 v -1.551286 l 0.731151,-1.449595 0.731161,-1.449595 0.014,0.693982 c 0.008,0.381689 0.008,1.753543 0,3.048562 -0.014,2.348747 -0.0143,2.355025 -0.12634,2.535187 -0.199571,0.320929 -0.611811,0.4287 -0.954212,0.249462 z m 58.116601,0.01956 c -0.0846,-0.03683 -0.2073,-0.14192 -0.27265,-0.233518 l -0.11878,-0.166544 -0.0116,-2.726356 c -0.007,-1.582744 0.007,-2.695163 0.0319,-2.651998 0.0239,0.0409 0.34701,0.793011 0.71795,1.671369 l 0.67444,1.597012 v 0.571679 0.571677 h 0.24247 c 0.23363,0 0.24522,0.0068 0.31844,0.185888 0.0418,0.102238 0.17718,0.425684 0.30087,0.718767 l 0.2249,0.532878 -0.97708,-0.0019 c -0.70802,-0.0013 -1.01945,-0.02038 -1.13093,-0.06891 z m 21.60484,-0.02802 c -0.0889,-0.05417 -0.20588,-0.171202 -0.26006,-0.260057 -0.0955,-0.156684 -0.0985,-0.25572 -0.0987,-3.283601 l -1.8e-4,-3.122044 0.72863,-1.896927 0.72865,-1.896926 h 0.42677 0.42675 l 0.27574,0.718766 0.27573,0.718767 h -0.71237 -0.71237 v 3.841165 3.841167 l 2.19057,0.01291 2.19057,0.01291 0.23883,0.619627 c 0.13136,0.340794 0.25126,0.658663 0.26647,0.706374 0.0261,0.08195 -0.13363,0.08674 -2.8879,0.08656 -2.82187,-1.8e-4 -2.92077,-0.0034 -3.07715,-0.09869 z m 23.60645,-0.533146 c 0.11942,-0.347611 0.23239,-0.671054 0.25107,-0.718767 0.0319,-0.0815 0.24942,-0.08675 3.59359,-0.08675 h 3.55966 l 0.15974,0.483308 c 0.0879,0.265821 0.20089,0.589266 0.2512,0.718767 l 0.0915,0.235458 h -4.06193 -4.06193 z m 26.14951,0.594841 c 0,-0.02045 0.0927,-0.343891 0.20654,-0.718766 l 0.20702,-0.681589 h 1.92987 c 1.67791,0 1.95202,0.01051 2.09945,0.08047 0.50109,0.237783 0.54208,0.931536 0.0735,1.244545 l -0.16843,0.112521 h -2.17377 c -1.19556,0 -2.17395,-0.01673 -2.17421,-0.03718 z M 38.540678,20.099532 c -1.121967,-0.491555 -2.117755,-1.24328 -2.195434,-1.657344 -0.08181,-0.436068 0.257244,-0.824095 0.720079,-0.824095 0.239325,0 0.42212,0.08548 0.600062,0.280602 0.119064,0.130559 1.383537,2.290666 1.383537,2.363502 0,0.05359 -0.05428,0.03622 -0.508244,-0.162665 z M 5.8205938,11.0873 C 6.001537,10.794218 6.2027133,10.469975 6.2676514,10.366761 l 0.1180671,-0.187662 0.4805957,0.01416 0.4805946,0.01416 0.3869535,0.619625 c 0.2128263,0.340795 0.4092306,0.658663 0.4364546,0.706374 0.04663,0.08171 -0.02965,0.08675 -1.3146067,0.08675 H 5.4916043 Z M 1.0286664,5.0720268 c 0,-3.7867751 -0.01064,-3.6564469 0.3150914,-3.8566232 0.2608423,-0.1602962 0.4732216,-0.1733192 0.722212,-0.04429 0.4230995,0.2192613 0.4002295,-0.0032 0.4002295,3.8926432 V 8.4972604 H 1.7474333 1.0286664 Z m 9.1209746,-0.0075 c 8.6e-5,-3.8967012 -0.02197,-3.680131 0.396482,-3.8934172 0.35736,-0.18214629 0.738208,-0.06451 0.93716,0.2894774 0.102586,0.1825282 0.103811,0.2251583 0.103811,3.6106888 V 8.4972564 H 10.868329 10.149562 Z M 23.236065,7.6680102 V 6.8387641 l 0.653257,-1.1411655 c 0.359291,-0.6276398 0.682735,-1.1851646 0.718767,-1.2389416 0.05481,-0.08182 0.06551,0.2398583 0.06551,1.9704106 V 8.4972564 H 23.954832 23.236066 Z M 37.782989,8.264442 C 37.088578,7.4412159 36.565657,6.5457057 36.413758,5.9196109 c -0.099,-0.4080515 -0.07304,-1.2800987 0.05238,-1.7597383 0.300204,-1.1480396 0.986308,-1.9734117 2.062296,-2.4809134 0.705037,-0.3325414 0.608722,-0.3651514 1.01722,0.3444085 0.195909,0.3402965 0.348318,0.6356949 0.338686,0.6564429 -0.0096,0.02075 -0.187651,0.09663 -0.395596,0.1686382 -1.112093,0.3850825 -1.674171,1.1268445 -1.686439,2.225551 -0.0036,0.3214804 0.02076,0.4910386 0.100495,0.6998869 0.23154,0.6064458 0.755962,1.3346378 1.555679,2.1601589 L 40.00408,8.4972564 H 38.991726 37.979373 Z M 59.831751,8.0635168 C 59.19174,7.2712427 58.88027,6.735043 58.671549,6.0661871 c -0.15264,-0.4891716 -0.15159,-1.3148348 0.002,-1.9063145 0.396931,-1.5243021 1.518402,-2.5117564 3.287355,-2.8944969 0.584011,-0.1263592 1.768712,-0.2192543 2.245453,-0.1760692 l 0.34804,0.03153 0.411581,0.768167 c 0.22637,0.4224906 0.40184,0.7779021 0.38994,0.7898031 -0.0119,0.0119 -0.21723,-0.01248 -0.45629,-0.05416 -0.561711,-0.09795 -1.696263,-0.09781 -2.301193,3.75e-4 -0.956172,0.1550672 -1.552132,0.4327986 -2.036703,0.9491563 -0.417811,0.4452146 -0.513651,0.7200289 -0.517371,1.483485 l -0.003,0.6002908 0.21111,0.4158945 c 0.286591,0.5645928 0.727101,1.1454665 1.396152,1.8410355 l 0.560241,0.5824498 H 61.195253 60.181641 Z M 80.748459,5.0309537 c 0.0135,-3.4128085 0.0153,-3.4684146 0.11589,-3.6031608 0.18351,-0.2457283 0.34855,-0.3355454 0.616571,-0.3355454 0.28538,0 0.46399,0.1070081 0.619621,0.3712375 0.0962,0.1633052 0.0995,0.2704753 0.11284,3.6010418 l 0.0137,3.4327296 H 81.48092 80.734769 Z m 22.205811,2.4872913 0.0153,-0.9790083 0.68745,-1.487103 c 0.3781,-0.817905 0.70712,-1.508294 0.73116,-1.534193 0.0253,-0.02723 0.0437,1.0129944 0.0437,2.4661113 v 2.5132044 h -0.74644 -0.74644 z m 13.14021,-0.3469894 c 0.024,-1.3723159 0.0526,-1.6062262 0.28695,-2.3421861 0.11892,-0.3735175 0.39324,-0.9914024 0.44015,-0.9914024 0.0177,0 0.21235,0.3921506 0.43268,0.8714462 0.37273,0.8108431 0.39721,0.8840992 0.35194,1.0533654 -0.0268,0.1000551 -0.0599,0.75631 -0.0736,1.4583459 l -0.025,1.2764318 h -0.71811 -0.71812 z m 22.75046,-2.1402959 c 0.0131,-3.4130505 0.015,-3.4683996 0.1156,-3.6031618 0.24273,-0.3250734 0.29435,-0.3397654 1.25611,-0.3575565 l 0.88044,-0.01628 0.27786,0.6606969 c 0.15282,0.3633835 0.29279,0.6997339 0.31106,0.747445 0.0307,0.08017 -0.0217,0.08675 -0.69088,0.08675 h -0.72405 v 2.974207 2.974206 h -0.71975 -0.71977 z m 21.65091,0.0088 c 1.7e-4,-3.3797645 0.002,-3.4612006 0.10016,-3.6214988 0.0577,-0.09468 0.18859,-0.2042053 0.30962,-0.2591544 0.1986,-0.09014 0.35511,-0.09523 2.9637,-0.09626 l 2.75403,-0.0011 0.27521,0.717418 c 0.15138,0.3945805 0.26346,0.729177 0.24909,0.743551 -0.0144,0.01437 -1.1935,0.02613 -2.6203,0.02613 h -2.59416 v 2.974207 2.974205 h -0.71877 -0.71876 z m 22.20721,2.2704481 V 6.1231412 l 0.69842,-2.0225967 c 0.38412,-1.1124295 0.70757,-2.0318927 0.71875,-2.0432518 0.0112,-0.01135 0.0204,1.432988 0.0204,3.2096633 v 3.2303184 h -0.71878 -0.71876 z"
       id="path29" />
  </g>
</svg>
