<?xml version="1.0" encoding="UTF-8" standalone="no"?>
<!-- Created with Inkscape (http://www.inkscape.org/) -->

<svg
   width="143.599"
   height="160.63"
   viewBox="0 0 37.993901 42.500022"
   version="1.1"
   id="svg1"
   inkscape:version="1.3-beta (cedbd6c6ff, 2023-05-28)"
   sodipodi:docname="HB_Logo_BellAndSquiggle.svg"
   xmlns:inkscape="http://www.inkscape.org/namespaces/inkscape"
   xmlns:sodipodi="http://sodipodi.sourceforge.net/DTD/sodipodi-0.dtd"
   xmlns="http://www.w3.org/2000/svg"
   xmlns:svg="http://www.w3.org/2000/svg">
  <sodipodi:namedview
     id="namedview1"
     pagecolor="#505050"
     bordercolor="#eeeeee"
     borderopacity="1"
     inkscape:showpageshadow="0"
     inkscape:pageopacity="0"
     inkscape:pagecheckerboard="0"
     inkscape:deskcolor="#505050"
     inkscape:document-units="px"
     inkscape:zoom="0.84096521"
     inkscape:cx="120.10009"
     inkscape:cy="196.20312"
     inkscape:window-width="1600"
     inkscape:window-height="930"
     inkscape:window-x="-6"
     inkscape:window-y="-6"
     inkscape:window-maximized="1"
     inkscape:current-layer="layer1" />
  <defs
     id="defs1" />
  <g
     inkscape:label="Layer 1"
     inkscape:groupmode="layer"
     id="layer1">
    <g
       id="g12-50-7"
       transform="matrix(2.9056989,0,0,2.9056989,135.02182,57.991124)"
       inkscape:export-filename="..\Logo\HB_Logo_BellAndSquiggle.svg"
       inkscape:export-xdpi="96"
       inkscape:export-ydpi="96">
      <path
         id="path4150-74-9-9-9-7-4-1-3-3-0-9-8-3-8-9-5-4-2-2-1-7-4-2-8"
         style="fill:#ffffff;fill-opacity:1;stroke:none;stroke-width:0.172607;stroke-linecap:round;stroke-linejoin:round;stroke-miterlimit:4;stroke-dasharray:none;stroke-dashoffset:0;stroke-opacity:1"
         d="m -39.925072,-19.957719 c -0.63655,0 -1.15257,0.47403 -1.15259,1.05877 6.6e-4,0.35073 0.19038,0.67838 0.50656,0.87494 v 0.22338 c -1.26568,0.14485 -2.6521,0.69463 -2.86762,1.52127 l -1.29383,4.96247 c -0.44254,1.6974099 -0.96048,1.8009099 -1.28064,2.1210699 l -0.45474,1.4255 c 0,0 0.0655,0.4002 6.53779,0.4002 6.47235,0 6.53788,-0.4002 6.53788,-0.4002 l -0.45482,-1.4255 c -0.32016,-0.32016 -0.84883,-0.44777 -1.28064,-2.1210699 l -1.28065,-4.96247 c -0.20993,-0.81352 -1.6253,-1.37102 -2.88209,-1.51971 v -0.21708 c 0.32303,-0.19574 0.51757,-0.52733 0.51793,-0.88281 0,-0.58473 -0.516,-1.05875 -1.15254,-1.05876 z m 0,0.52939 c 0.31828,0 0.57629,0.23702 0.57629,0.52938 -6.6e-4,0.0982 -0.0309,0.19434 -0.0875,0.27764 h -0.97752 c -0.0567,-0.0833 -0.087,-0.17943 -0.0875,-0.27764 0,-0.29236 0.25802,-0.52938 0.57629,-0.52938 z"
         sodipodi:nodetypes="scccssccsccsscccssccccs" />
      <path
         style="color:#000000;fill:#ffffff;fill-opacity:1;stroke:none;stroke-width:0.0613049;stroke-linecap:round;stroke-linejoin:round;stroke-dasharray:none;stroke-opacity:1"
         d="m -39.145912,-7.3592791 c -0.0801,0.0605 -0.16283,0.11565 -0.24573,0.16483 -0.31224,0.18524 -0.80548,0.46705 -0.68444,0.84915 0.10831,0.34196 0.62929,0.11727 0.89952,-0.028 0.35428,-0.19042 0.7435,0.39162 0.45143,0.67913 -0.63649,0.62653 -1.8888,0.41634 -2.21461,-0.43428 -0.16474,-0.43009 -0.0203,-0.89119 0.26572,-1.23633"
         id="path203-9-8-7-0-2-4-0-6" />
      <path
         id="path203-6-2-4-3-4-1"
         style="color:#000000;fill:#000000;fill-opacity:1;stroke:none;stroke-width:0.0613049;stroke-linecap:round;stroke-linejoin:round;stroke-dasharray:none;stroke-opacity:1"
         d="m -42.660572,-11.475679 c -0.35903,0.0984 -0.51923,-0.57623 -0.15853,-0.73474 0.1848,-0.0812 0.36681,-0.16208 0.56194,-0.20066 0.23311,-0.0461 0.49118,-0.03 0.72809,0.0441 0.37187,0.11631 0.69121,0.37544 0.77928,0.76105 0.14491,0.63449 -0.33209,1.22263 -0.83441,1.572 -0.29804,0.2072799 -0.76964,0.5239599 -0.62132,0.8963499 0.12088,0.30352 1.24723,-0.17072 1.64317,-0.38238 0.0728,-0.0389 0.14054,-0.0669 0.22982,-0.1014 0.14305,-0.0554 0.29024,-0.0939 0.44129,-0.11258 0.60613,-0.0749 1.34707,0.39185 1.4453,1.03191 0.0832,0.54194 -0.27152,1.01922 -0.69998,1.3428 l -1.52811,-0.005 c 0.1179,-0.1423 0.25984,-0.26491 0.41409,-0.35749 0.38123,-0.22887 0.90196,-0.31507 1.12537,-0.73654 0.10885,-0.20531 -0.0217,-0.53008 -0.26675,-0.57652 -0.186,-0.0353 -0.35396,-0.037 -0.51782,0.0349 -0.0126,0.0246 -0.0281,0.0483 -0.0478,0.0707 -0.5896,0.67087 -2.6511,1.10658 -3.08438,0.0707 -0.25098,-0.60009 0.0589,-1.2842599 0.56297,-1.6387499 0.36372,-0.25579 0.87685,-0.37937 1.06925,-0.81586 0.0937,-0.21262 -0.0555,-0.46727 -0.30334,-0.49589 -0.35717,-0.0413 -0.62546,0.24812 -0.93816,0.33383 z"
         sodipodi:nodetypes="ssscsssssssccssscsssscs" />
    </g>
  </g>
</svg>
