<?xml version="1.0" encoding="utf-8"?>
<!-- Generator: Adobe Illustrator 16.0.0, SVG Export Plug-In . SVG Version: 6.00 Build 0)  -->
<!DOCTYPE svg PUBLIC "-//W3C//DTD SVG 1.1//EN" "http://www.w3.org/Graphics/SVG/1.1/DTD/svg11.dtd">
<svg version="1.1" id="Layer_1" xmlns="http://www.w3.org/2000/svg" xmlns:xlink="http://www.w3.org/1999/xlink" x="0px" y="0px"
	 width="969.054px" height="119.602px" viewBox="0 0 969.054 119.602" enable-background="new 0 0 969.054 119.602"
	 xml:space="preserve">
<g>
	<g id="layer1" inkscape:label="Layer 1" inkscape:groupmode="layer">
		
			<g id="g12-50-7" transform="matrix(2.9056989,0,0,2.9056989,135.02182,57.991124)" inkscape:export-filename="..\Logo\HB_Logo_BellAndSquiggle.svg" inkscape:export-ydpi="96" inkscape:export-xdpi="96">
			
				<path id="path4150-74-9-9-9-7-4-1-3-3-0-9-8-3-8-9-5-4-2-2-1-7-4-2-8" sodipodi:nodetypes="scccssccsccsscccssccccs" fill="#FFFFFF" d="
				M-28.055-19.958c-1.792,0-3.244,1.334-3.244,2.98c0.002,0.987,0.536,1.909,1.425,2.462v0.628
				c-3.562,0.408-7.463,1.955-8.07,4.281l-3.641,13.965c-1.245,4.777-2.703,5.068-3.604,5.97l-1.28,4.011
				c0,0,0.184,1.126,18.399,1.126s18.399-1.126,18.399-1.126l-1.28-4.011c-0.901-0.902-2.389-1.26-3.604-5.97l-3.604-13.965
				c-0.591-2.29-4.574-3.858-8.111-4.277v-0.611c0.909-0.551,1.456-1.484,1.458-2.484C-24.812-18.624-26.264-19.958-28.055-19.958z
				 M-28.055-18.468c0.896,0,1.621,0.667,1.621,1.49c-0.002,0.276-0.087,0.547-0.246,0.781h-2.751
				c-0.159-0.235-0.245-0.505-0.246-0.781C-29.677-17.801-28.951-18.468-28.055-18.468L-28.055-18.468z"/>
			<path id="path203-9-8-7-0-2-4-0-6" fill="#FFFFFF" d="M-25.863,15.496c-0.225,0.17-0.458,0.326-0.691,0.464
				c-0.879,0.522-2.267,1.314-1.926,2.39c0.305,0.963,1.771,0.33,2.532-0.079c0.997-0.535,2.092,1.102,1.271,1.912
				c-1.792,1.763-5.316,1.172-6.232-1.222c-0.464-1.21-0.057-2.508,0.748-3.479"/>
			<path id="path203-6-2-4-3-4-1" sodipodi:nodetypes="ssscsssssssccssscsssscs" fill="#010101" d="M-35.753,3.912
				c-1.011,0.277-1.461-1.622-0.446-2.068c0.52-0.229,1.032-0.456,1.581-0.564c0.656-0.13,1.382-0.085,2.049,0.124
				c1.047,0.327,1.945,1.056,2.193,2.142c0.408,1.786-0.935,3.441-2.348,4.424c-0.839,0.584-2.166,1.474-1.748,2.522
				c0.34,0.855,3.51-0.48,4.624-1.076c0.205-0.109,0.395-0.188,0.647-0.285c0.403-0.156,0.817-0.264,1.242-0.317
				c1.706-0.211,3.791,1.103,4.067,2.904c0.234,1.525-0.764,2.868-1.97,3.779l-4.3-0.015c0.332-0.4,0.731-0.745,1.165-1.006
				c1.073-0.644,2.538-0.887,3.167-2.073c0.306-0.578-0.061-1.492-0.751-1.622c-0.523-0.099-0.996-0.104-1.457,0.098
				c-0.035,0.07-0.079,0.136-0.134,0.199c-1.659,1.888-7.461,3.114-8.68,0.198c-0.707-1.688,0.166-3.614,1.584-4.611
				c1.023-0.72,2.468-1.068,3.009-2.296c0.264-0.598-0.156-1.315-0.854-1.395c-1.005-0.116-1.76,0.698-2.64,0.939L-35.753,3.912z"/>
		</g>
	</g>
	<g>
		
			<path id="path2110-7-8-4-9-3-3-9-7-8-85-6-1-7-2-7-9-9-1" inkscape:export-filename="..\Logo\HB_Logotype_BlackFlecks.svg" inkscape:export-ydpi="96" inkscape:export-xdpi="96" fill="none" stroke="#FFFFFF" stroke-width="13" stroke-linecap="round" stroke-linejoin="round" d="
			M458.892,25.207v68.878 M928.115,25.207v68.877h34.438 M844.171,25.207v68.877h34.439 M760.228,59.645h23.451 M794.666,94.082
			h-34.438V25.207h34.438 M678.434,59.645h15.068c12.915,0,19.373,8.608,19.373,17.22c0,8.608-6.458,17.218-19.373,17.218h-15.068
			V25.207h15.068c12.915,0,19.373,8.608,19.373,17.22c0,8.608-6.458,17.218-19.373,17.218H678.434 M615.273,59.866h11.505v14.849
			c0,12.914-8.609,19.372-17.218,19.372c-8.609,0-17.22-6.458-17.22-19.372V59.646V44.578c0-12.914,8.61-19.371,17.219-19.371
			c10.43,0,17.171,5.275,17.171,12.513 M508.398,94.084V25.207l34.438,68.877V25.207 M241.498,25.207v68.877 M157.554,59.646h34.438
			 M191.992,25.207v34.439v34.438 M157.554,25.207v68.877 M409.386,31.664c0,0-6.458-6.457-17.219-6.457
			c-10.762,0-17.219,4.291-17.219,12.914c0,12.914,34.438,30.135,34.438,43.049c0,8.626-6.457,12.915-17.22,12.915
			c-10.762,0-17.22-6.457-17.22-6.457 M325.443,31.664c0,0-6.459-6.457-17.221-6.457s-17.219,4.291-17.219,12.914
			c0,12.914,34.439,30.135,34.439,43.049c0,8.626-6.458,12.915-17.221,12.915c-10.762,0-17.22-6.457-17.22-6.457"/>
		<path id="path29" fill="#010101" d="M156.141,96.58c-1.084-0.725-1.292-1.395-1.292-4.173l0-2.444l2.67-4.344l2.67-4.344
			l0.049,6.86c0.045,6.343,0.023,6.904-0.291,7.442C159.139,96.961,157.397,97.419,156.141,96.58L156.141,96.58z M190.624,96.583
			c-1.367-0.921-1.312-0.397-1.257-11.819l0.048-10.233l2.67,4.344l2.67,4.344l0,5.816c0,5.164-0.037,5.89-0.328,6.469
			C193.71,96.929,191.9,97.443,190.624,96.583L190.624,96.583z M387.839,96.71c-5.278-0.821-10.967-3.434-14.397-6.612
			c-1.051-0.975-1.383-1.887-1.087-2.987c0.317-1.181,1.337-1.909,2.667-1.907c0.885,0,1.225,0.186,3.202,1.746
			c3.319,2.619,7.983,4.287,12.735,4.556l2.203,0.125l1.383,2.547c1.165,2.147,1.334,2.567,1.076,2.675
			C395.077,97.077,389.559,96.977,387.839,96.71L387.839,96.71z M457.605,96.663c-0.405-0.212-0.813-0.652-1.074-1.163
			c-0.41-0.801-0.422-0.974-0.422-6.686v-5.863l2.764-5.479l2.764-5.479l0.053,2.623c0.03,1.442,0.03,6.627,0,11.521
			c-0.053,8.877-0.054,8.901-0.478,9.582C460.458,96.934,458.9,97.341,457.605,96.663L457.605,96.663z M677.259,96.737
			c-0.319-0.139-0.783-0.536-1.03-0.883l-0.448-0.629l-0.044-10.305c-0.026-5.981,0.026-10.187,0.12-10.023
			c0.091,0.155,1.312,2.997,2.714,6.317l2.549,6.036v2.16v2.161h0.916c0.884,0,0.928,0.025,1.204,0.702
			c0.158,0.387,0.67,1.609,1.137,2.717l0.851,2.014l-3.693-0.007C678.857,96.993,677.681,96.921,677.259,96.737L677.259,96.737z
			 M758.915,96.632c-0.336-0.205-0.778-0.647-0.982-0.983c-0.361-0.592-0.372-0.966-0.373-12.41l-0.001-11.8l2.754-7.17l2.754-7.169
			h1.613h1.612l1.043,2.717l1.042,2.716h-2.692h-2.692v14.519v14.518l8.279,0.049l8.279,0.049l0.902,2.342
			c0.496,1.288,0.949,2.489,1.007,2.67c0.099,0.31-0.505,0.327-10.915,0.327C759.88,97.004,759.506,96.992,758.915,96.632
			L758.915,96.632z M848.137,94.616c0.451-1.313,0.878-2.536,0.949-2.716c0.12-0.309,0.942-0.328,13.582-0.328h13.453l0.604,1.826
			c0.332,1.005,0.759,2.228,0.949,2.717l0.346,0.89h-15.353h-15.352L848.137,94.616z M946.97,96.864c0-0.077,0.35-1.299,0.78-2.716
			l0.782-2.576h7.294c6.342,0,7.378,0.039,7.936,0.304c1.894,0.898,2.049,3.521,0.277,4.704l-0.637,0.425h-8.216
			C950.668,97.005,946.971,96.942,946.97,96.864L946.97,96.864z M296.627,94.581c-4.241-1.858-8.004-4.699-8.299-6.265
			c-0.309-1.647,0.973-3.114,2.723-3.114c0.904,0,1.595,0.323,2.268,1.061c0.449,0.493,5.229,8.657,5.229,8.933
			C298.547,95.398,298.342,95.332,296.627,94.581z M172.96,60.519c0.684-1.107,1.444-2.333,1.69-2.723l0.446-0.71l1.817,0.054
			l1.816,0.054l1.462,2.342c0.804,1.288,1.546,2.489,1.649,2.67c0.176,0.309-0.112,0.328-4.969,0.328h-5.155L172.96,60.519z
			 M154.849,37.784c0-14.313-0.04-13.82,1.191-14.576c0.986-0.606,1.789-0.655,2.73-0.168c1.599,0.829,1.513-0.012,1.513,14.713
			v12.977h-2.717h-2.717V37.784z M189.322,37.756c0-14.728-0.083-13.909,1.499-14.716c1.351-0.688,2.79-0.243,3.542,1.095
			c0.388,0.689,0.393,0.851,0.393,13.646v12.948h-2.717h-2.717L189.322,37.756z M238.782,47.596v-3.135l2.47-4.313
			c1.357-2.372,2.58-4.479,2.716-4.683c0.207-0.31,0.247,0.906,0.247,7.447v7.816h-2.716h-2.717V47.596z M293.763,49.85
			c-2.624-3.111-4.601-6.496-5.175-8.862c-0.375-1.542-0.276-4.838,0.197-6.651c1.135-4.339,3.729-7.458,7.795-9.376
			c2.665-1.257,2.301-1.38,3.845,1.302c0.74,1.286,1.316,2.402,1.28,2.48c-0.037,0.079-0.709,0.365-1.495,0.638
			c-4.204,1.455-6.327,4.259-6.374,8.411c-0.014,1.216,0.078,1.856,0.38,2.646c0.875,2.292,2.856,5.044,5.88,8.164l2.062,2.129
			h-3.826h-3.826L293.763,49.85z M377.097,49.09c-2.419-2.994-3.597-5.021-4.385-7.549c-0.577-1.849-0.573-4.969,0.007-7.205
			c1.5-5.761,5.739-9.493,12.426-10.939c2.207-0.478,6.684-0.828,8.486-0.665l1.315,0.119l1.556,2.903
			c0.855,1.597,1.519,2.939,1.474,2.984s-0.821-0.047-1.725-0.204c-2.123-0.37-6.411-0.37-8.698,0.001
			c-3.613,0.586-5.865,1.636-7.697,3.588c-1.579,1.683-1.941,2.721-1.955,5.606l-0.012,2.269l0.799,1.572
			c1.082,2.134,2.748,4.329,5.275,6.958l2.118,2.201h-3.831h-3.831L377.097,49.09z M456.152,37.629
			c0.051-12.899,0.058-13.109,0.438-13.618c0.693-0.929,1.317-1.269,2.33-1.269c1.079,0,1.754,0.404,2.342,1.403
			c0.364,0.617,0.377,1.022,0.427,13.61l0.052,12.974h-2.82h-2.82L456.152,37.629z M540.079,47.029l0.059-3.7l2.598-5.62
			c1.429-3.092,2.673-5.701,2.764-5.799c0.096-0.103,0.165,3.829,0.165,9.32v9.499h-2.821h-2.821L540.079,47.029z M589.743,45.718
			c0.091-5.187,0.199-6.07,1.085-8.853c0.449-1.411,1.486-3.747,1.663-3.747c0.067,0,0.803,1.482,1.636,3.294
			c1.408,3.064,1.501,3.342,1.33,3.981c-0.102,0.378-0.227,2.858-0.278,5.512l-0.095,4.824h-2.714h-2.714L589.743,45.718z
			 M675.729,37.629c0.049-12.9,0.057-13.109,0.437-13.618c0.918-1.229,1.112-1.284,4.748-1.352l3.327-0.062l1.05,2.497
			c0.578,1.373,1.107,2.645,1.176,2.825c0.116,0.303-0.082,0.327-2.611,0.327h-2.736v11.241v11.241h-2.72h-2.721L675.729,37.629z
			 M757.56,37.662c0.001-12.774,0.008-13.082,0.378-13.688c0.219-0.358,0.713-0.772,1.171-0.979c0.75-0.341,1.342-0.36,11.201-0.364
			l10.409-0.004l1.04,2.712c0.572,1.491,0.995,2.756,0.941,2.81c-0.055,0.055-4.511,0.099-9.903,0.099h-9.805v11.241v11.241h-2.717
			h-2.717L757.56,37.662z M841.492,46.243v-4.486l2.64-7.645c1.452-4.205,2.675-7.68,2.717-7.723s0.077,5.416,0.077,12.131v12.209
			h-2.717h-2.717V46.243z"/>
	</g>
</g>
</svg>
