<?xml version="1.0" encoding="utf-8"?>
<!-- Generator: Adobe Illustrator 16.0.0, SVG Export Plug-In . SVG Version: 6.00 Build 0)  -->
<!DOCTYPE svg PUBLIC "-//W3C//DTD SVG 1.1//EN" "http://www.w3.org/Graphics/SVG/1.1/DTD/svg11.dtd">
<svg version="1.1" id="Layer_1" xmlns="http://www.w3.org/2000/svg" xmlns:xlink="http://www.w3.org/1999/xlink" x="0px" y="0px"
	 width="232.227px" height="76.521px" viewBox="0 0 232.227 76.521" enable-background="new 0 0 232.227 76.521"
	 xml:space="preserve">
<g>
	<g>
		<g>
			<path fill="#185456" d="M22.229,21.353h-3.564c-6.086,0-9.129-1.845-9.129-5.534c0-1.666,0.943-3.037,2.83-4.111
				c1.886-1.072,4.715-1.609,8.487-1.609c2.647,0,5.106,0.308,7.378,0.922c2.271,0.615,4.147,1.496,5.627,2.643l-1.782,1.375
				c-2.606-1.792-6.347-2.688-11.224-2.688c-3.126,0-5.419,0.323-6.877,0.97c-1.459,0.646-2.188,1.479-2.188,2.5
				c0,1.188,0.51,2.033,1.532,2.533c1.021,0.5,2.803,0.75,5.346,0.75h3.564c5.794,0,10.265,1.318,13.412,3.955
				c3.147,2.637,4.721,6.164,4.721,10.583c0,2.021-0.448,3.919-1.344,5.69c-0.896,1.771-2.184,3.329-3.861,4.674
				c-1.678,1.344-3.819,2.406-6.424,3.188c-2.606,0.782-5.503,1.173-8.691,1.173c-4.023,0-7.785-0.61-11.287-1.83
				C5.252,45.316,2.334,43.613,0,41.424l1.813-1.344c2.126,1.918,4.783,3.402,7.972,4.455s6.607,1.578,10.255,1.578
				c5.627,0,10.045-1.188,13.255-3.563c3.209-2.376,4.814-5.347,4.814-8.91c0-3.772-1.375-6.764-4.127-8.974
				C31.232,22.457,27.313,21.353,22.229,21.353z M22.229,30.357h-3.564c-5.794,0-10.265-1.318-13.412-3.955
				c-3.147-2.637-4.721-6.164-4.721-10.584c0-2.021,0.448-3.918,1.344-5.689c0.896-1.771,2.183-3.33,3.861-4.674
				c1.677-1.344,3.819-2.407,6.424-3.189c2.605-0.781,5.502-1.172,8.691-1.172c4.022,0,7.785,0.609,11.287,1.828
				c3.501,1.221,6.419,2.924,8.754,5.112L39.08,9.379c-2.126-1.918-4.783-3.402-7.972-4.455S24.5,3.345,20.853,3.345
				c-5.627,0-10.046,1.188-13.255,3.563c-3.21,2.377-4.814,5.347-4.814,8.91c0,3.773,1.375,6.764,4.127,8.973
				c2.751,2.21,6.669,3.314,11.755,3.314h3.438c6.169,0,9.254,1.845,9.254,5.534c0,1.667-0.943,3.038-2.83,4.11
				c-1.886,1.074-4.716,1.611-8.487,1.611c-2.647,0-5.107-0.309-7.378-0.923c-2.272-0.614-4.148-1.495-5.627-2.642l1.782-1.376
				c2.605,1.793,6.347,2.688,11.224,2.688c3.125,0,5.418-0.322,6.877-0.969c1.458-0.646,2.188-1.48,2.188-2.501
				c0-1.188-0.511-2.032-1.532-2.532S24.771,30.357,22.229,30.357z M22.229,25.854h-3.564c-4.377,0-7.743-0.891-10.098-2.673
				c-2.355-1.782-3.533-4.236-3.533-7.363c0-2.917,1.386-5.351,4.158-7.299c2.771-1.949,6.659-2.924,11.661-2.924
				c3.334,0,6.445,0.459,9.333,1.375c2.886,0.918,5.289,2.21,7.206,3.877l-1.75,1.407c-1.709-1.396-3.856-2.479-6.44-3.251
				c-2.584-0.771-5.367-1.157-8.348-1.157c-4.397,0-7.758,0.751-10.082,2.251c-2.324,1.5-3.486,3.408-3.486,5.721
				c0,2.502,0.954,4.424,2.861,5.77c1.907,1.344,4.747,2.016,8.519,2.016h3.438c4.44,0,7.842,0.891,10.208,2.674
				c2.365,1.781,3.548,4.236,3.548,7.362c0,2.918-1.386,5.351-4.158,7.3s-6.659,2.924-11.661,2.924
				c-3.335,0-6.446-0.459-9.333-1.376c-2.887-0.917-5.289-2.209-7.207-3.877l1.751-1.407c1.709,1.396,3.856,2.48,6.44,3.252
				c2.584,0.771,5.367,1.156,8.348,1.156c4.397,0,7.758-0.75,10.082-2.25c2.324-1.502,3.486-3.408,3.486-5.722
				c0-2.501-0.954-4.425-2.861-5.769C28.841,26.527,26,25.854,22.229,25.854z"/>
			<path fill="#185456" d="M45.27,2.25h2.251v45.021H45.27V2.25z M49.772,2.25h2.251v45.021h-2.251V2.25z M54.274,2.25h2.251v45.021
				h-2.251V2.25z M58.776,2.25h2.251v45.021h-2.251V2.25z"/>
			<path fill="#185456" d="M83.912,34.766H97.48c2.771,0,5.335-0.668,7.691-2.002c2.355-1.333,4.236-3.188,5.643-5.564
				c1.407-2.377,2.11-5.002,2.11-7.879c0-2.605-0.699-5.049-2.095-7.331c-1.396-2.282-3.288-4.101-5.674-5.456
				c-2.387-1.354-4.945-2.031-7.675-2.031H69.155v42.769h-2.25V2.25H97.48c2.355,0,4.622,0.465,6.8,1.392
				c2.178,0.928,4.059,2.157,5.643,3.688c1.583,1.533,2.855,3.352,3.814,5.456c0.958,2.105,1.438,4.283,1.438,6.534
				c0,3.648-0.834,6.832-2.501,9.551c-1.667,2.721-3.908,4.789-6.722,6.207l4.721,12.192h-2.408l-4.471-11.286
				c-0.563,0.188-1.219,0.375-1.969,0.563l4.22,10.724h-2.407l-4.127-10.349c-0.646,0.063-1.324,0.094-2.032,0.094l3.97,10.255
				h-2.376l-3.939-10.255h-2.032l3.783,10.255H94.51l-3.814-10.255h-6.784V34.766z M83.912,30.263H97.48
				c3.001,0,5.575-1.021,7.722-3.063c2.146-2.043,3.22-4.669,3.22-7.879c0-2.73-1.094-5.132-3.283-7.206
				c-2.188-2.073-4.742-3.11-7.66-3.11H73.657v38.267h-2.251V6.752H97.48c3.543,0,6.628,1.256,9.254,3.768s3.939,5.445,3.939,8.801
				c0,3.752-1.298,6.889-3.893,9.41c-2.595,2.522-5.695,3.783-9.301,3.783H83.912V30.263z M83.912,25.761H97.48
				c1.792,0,3.314-0.563,4.564-1.688c1.25-1.125,1.875-2.709,1.875-4.752c0-1.5-0.651-2.845-1.954-4.033
				c-1.303-1.188-2.798-1.781-4.486-1.781H78.159v33.765h-2.251V11.254H97.48c2.313,0,4.34,0.813,6.081,2.439
				c1.74,1.625,2.611,3.502,2.611,5.627c0,2.647-0.844,4.758-2.533,6.331c-1.688,1.574-3.741,2.36-6.159,2.36H83.912V25.761z
				 M82.661,47.271H80.41V15.756h17.07c1.167,0,2.157,0.35,2.97,1.048c0.813,0.698,1.219,1.538,1.219,2.517
				c0,2.793-1.396,4.189-4.189,4.189H83.912v-2.251H97.48c1.292,0,1.938-0.646,1.938-1.938c0-0.354-0.193-0.661-0.578-0.922
				c-0.386-0.261-0.839-0.391-1.36-0.391H82.661V47.271z"/>
			<path fill="#185456" d="M162.415,47.271h-2.251V19.133c0-2.271-0.505-4.449-1.516-6.534c-1.011-2.084-2.371-3.882-4.08-5.394
				c-1.709-1.51-3.741-2.714-6.096-3.61c-2.356-0.896-4.815-1.345-7.378-1.345c-3.522,0-6.717,0.662-9.583,1.986
				c-2.866,1.323-5.164,3.282-6.894,5.877c-1.73,2.595-2.595,5.602-2.595,9.02v28.138h-2.251V19.133
				c0-2.876,0.563-5.523,1.688-7.941c1.125-2.417,2.652-4.439,4.58-6.064c1.928-1.626,4.189-2.887,6.784-3.783
				C135.418,0.447,138.174,0,141.093,0c5.169,0,9.65,1.303,13.443,3.907C158.33,1.303,162.811,0,167.979,0
				c2.918,0,5.675,0.447,8.27,1.344s4.856,2.157,6.784,3.783c1.928,1.625,3.455,3.647,4.58,6.064
				c1.125,2.418,1.688,5.065,1.688,7.941v28.138h-2.251V19.133c0-3.396-0.865-6.394-2.595-8.988s-4.028-4.559-6.894-5.893
				s-6.06-2.002-9.583-2.002c-4.418,0-8.274,1.043-11.567,3.127c0.479,0.417,1.011,0.959,1.594,1.625
				c2.855-1.666,6.18-2.5,9.973-2.5c2.313,0,4.491,0.333,6.534,1c2.042,0.667,3.825,1.609,5.346,2.829s2.725,2.757,3.611,4.612
				c0.885,1.854,1.329,3.918,1.329,6.189v28.138h-2.251V19.133c0-1.959-0.381-3.73-1.141-5.314
				c-0.761-1.584-1.809-2.887-3.142-3.908c-1.334-1.021-2.876-1.803-4.627-2.345c-1.751-0.542-3.638-0.813-5.659-0.813
				c-3.313,0-6.179,0.678-8.597,2.033c0.375,0.583,0.75,1.229,1.125,1.938c2.042-1.146,4.533-1.719,7.471-1.719
				c2.313,0,4.382,0.359,6.206,1.078c1.824,0.719,3.298,1.86,4.424,3.424c1.125,1.563,1.688,3.438,1.688,5.627v28.138h-2.251V19.133
				c0-2.646-0.933-4.621-2.798-5.924c-1.866-1.303-4.289-1.955-7.269-1.955c-2.709,0-4.908,0.501-6.596,1.501
				c0.271,0.792,0.479,1.543,0.625,2.251c1.313-1,3.303-1.5,5.971-1.5c5.21,0,7.816,1.875,7.816,5.627v28.138h-2.251V19.133
				c0-0.604-0.099-1.12-0.297-1.547c-0.198-0.428-0.453-0.756-0.766-0.985c-0.313-0.229-0.724-0.411-1.235-0.548
				c-0.511-0.135-1.006-0.219-1.485-0.25c-0.479-0.031-1.074-0.047-1.782-0.047s-1.303,0.016-1.781,0.047
				c-0.48,0.031-0.975,0.115-1.485,0.25c-0.511,0.137-0.922,0.318-1.235,0.548c-0.313,0.229-0.568,0.558-0.766,0.985
				c-0.199,0.427-0.297,0.943-0.297,1.547V47.271z M157.913,19.133v28.138h-2.251V19.133c0-1.959-0.38-3.73-1.141-5.314
				c-0.761-1.584-1.809-2.887-3.142-3.908c-1.334-1.021-2.876-1.803-4.627-2.345s-3.637-0.813-5.659-0.813
				c-2.022,0-3.908,0.271-5.659,0.813c-1.751,0.542-3.293,1.323-4.627,2.345s-2.381,2.324-3.142,3.908
				c-0.761,1.584-1.142,3.355-1.142,5.314v28.138h-2.251V19.133c0-2.271,0.443-4.335,1.329-6.189
				c0.885-1.855,2.089-3.393,3.611-4.612c1.521-1.22,3.303-2.162,5.346-2.829c2.042-0.667,4.221-1,6.534-1s4.491,0.333,6.534,1
				c2.042,0.667,3.824,1.609,5.346,2.829c1.521,1.22,2.725,2.757,3.611,4.612C157.47,14.798,157.913,16.861,157.913,19.133z
				 M153.411,19.133v28.138h-2.251V19.133c0-2.646-0.933-4.621-2.798-5.924s-4.288-1.955-7.269-1.955
				c-2.981,0-5.404,0.652-7.269,1.955c-1.866,1.303-2.798,3.277-2.798,5.924v28.138h-2.251V19.133c0-2.188,0.563-4.064,1.688-5.627
				c1.125-1.563,2.6-2.705,4.424-3.424c1.824-0.719,3.893-1.078,6.206-1.078s4.382,0.359,6.206,1.078s3.298,1.86,4.424,3.424
				C152.848,15.068,153.411,16.944,153.411,19.133z M148.909,19.133v28.138h-2.251V19.133c0-0.604-0.099-1.12-0.297-1.547
				c-0.199-0.428-0.454-0.756-0.766-0.985s-0.725-0.411-1.235-0.548c-0.511-0.135-1.006-0.219-1.485-0.25s-1.074-0.047-1.782-0.047
				c-0.709,0-1.303,0.016-1.782,0.047s-0.975,0.115-1.485,0.25c-0.511,0.137-0.922,0.318-1.235,0.548
				c-0.313,0.229-0.568,0.558-0.766,0.985c-0.198,0.427-0.297,0.943-0.297,1.547v28.138h-2.251V19.133
				c0-3.752,2.605-5.627,7.816-5.627C146.303,13.506,148.909,15.381,148.909,19.133z"/>
			<path fill="#185456" d="M197.18,47.271h-2.251V2.25h2.251V47.271z M201.682,47.271h-2.251V2.25h2.251V47.271z M206.184,47.271
				h-2.251V2.25h2.251V47.271z M210.686,36.016h21.541v2.251h-21.541v2.251h21.541v2.251h-21.541v2.251h21.541v2.251h-23.792V2.25
				h23.792v2.252h-21.541v2.25h21.541v2.252h-21.541v2.25h21.541v2.252h-21.541v5.596h20.29v2.251h-20.29v2.251h20.29v2.251h-20.29
				v2.251h20.29v2.252h-20.29V36.016z"/>
		</g>
	</g>
	<g>
		<polygon fill="#ED2024" points="61.167,66.098 51.092,60.268 61.156,54.529 71.243,60.26 		"/>
		<polygon fill="#3953A4" points="61.061,66.285 61.061,76.521 50.933,70.713 50.933,60.432 		"/>
		<polygon fill="#0B8140" points="61.273,66.285 61.273,76.521 71.401,70.713 71.401,60.432 		"/>
	</g>
	<g>
		<path fill="#D7EFF7" d="M83.856,70.301c-0.085-0.164-0.16-0.434-0.223-0.805c-0.617,0.643-1.373,0.965-2.266,0.965
			c-0.867,0-1.574-0.248-2.122-0.742s-0.822-1.105-0.822-1.835c0-0.92,0.342-1.626,1.025-2.118c0.683-0.492,1.661-0.738,2.932-0.738
			h1.189v-0.566c0-0.446-0.125-0.804-0.375-1.072s-0.63-0.402-1.141-0.402c-0.441,0-0.803,0.109-1.085,0.33
			c-0.282,0.221-0.422,0.502-0.422,0.842h-1.939c0-0.473,0.157-0.916,0.471-1.328s0.741-0.735,1.281-0.969
			c0.54-0.234,1.142-0.352,1.807-0.352c1.011,0,1.816,0.254,2.417,0.762s0.909,1.223,0.925,2.143v3.893
			c0,0.777,0.109,1.396,0.327,1.859v0.135H83.856z M81.726,68.905c0.383,0,0.743-0.093,1.081-0.279
			c0.338-0.187,0.592-0.437,0.762-0.75v-1.628h-1.045c-0.718,0-1.258,0.125-1.619,0.375c-0.362,0.25-0.542,0.604-0.542,1.062
			c0,0.372,0.124,0.669,0.371,0.89C80.98,68.795,81.311,68.905,81.726,68.905z"/>
		<path fill="#D7EFF7" d="M97.865,67.31c0-0.511-0.18-0.904-0.539-1.181s-1.007-0.556-1.943-0.838
			c-0.936-0.281-1.681-0.596-2.233-0.941c-1.059-0.664-1.588-1.531-1.588-2.601c0-0.937,0.382-1.707,1.145-2.313
			s1.754-0.91,2.972-0.91c0.809,0,1.529,0.149,2.162,0.447c0.633,0.298,1.13,0.723,1.492,1.272c0.362,0.551,0.542,1.161,0.542,1.831
			h-2.01c0-0.606-0.19-1.081-0.57-1.424c-0.38-0.344-0.924-0.515-1.632-0.515c-0.659,0-1.171,0.141-1.536,0.423
			c-0.364,0.281-0.546,0.676-0.546,1.181c0,0.425,0.197,0.78,0.59,1.065c0.394,0.284,1.042,0.561,1.947,0.829
			c0.904,0.269,1.63,0.575,2.178,0.917c0.548,0.344,0.949,0.737,1.205,1.182c0.255,0.443,0.383,0.964,0.383,1.559
			c0,0.969-0.371,1.738-1.113,2.311c-0.742,0.571-1.749,0.857-3.02,0.857c-0.84,0-1.613-0.156-2.317-0.467
			c-0.705-0.311-1.252-0.74-1.644-1.289c-0.391-0.547-0.586-1.186-0.586-1.914h2.019c0,0.66,0.218,1.17,0.654,1.531
			c0.436,0.362,1.061,0.543,1.875,0.543c0.702,0,1.23-0.143,1.583-0.427S97.865,67.777,97.865,67.31z"/>
		<path fill="#D7EFF7" d="M101.471,59.428c0-0.298,0.095-0.545,0.283-0.742c0.189-0.197,0.459-0.295,0.81-0.295
			s0.622,0.098,0.813,0.295s0.287,0.444,0.287,0.742c0,0.293-0.096,0.535-0.287,0.73c-0.191,0.193-0.462,0.291-0.813,0.291
			s-0.621-0.098-0.81-0.291C101.565,59.963,101.471,59.721,101.471,59.428z M103.529,70.301h-1.939V61.67h1.939V70.301z"/>
		<path fill="#D7EFF7" d="M107.462,61.67l0.056,0.9c0.606-0.707,1.436-1.061,2.489-1.061c1.154,0,1.944,0.441,2.37,1.324
			c0.627-0.883,1.51-1.324,2.648-1.324c0.952,0,1.661,0.264,2.126,0.789c0.465,0.527,0.703,1.304,0.713,2.33v5.672h-1.938v-5.615
			c0-0.549-0.12-0.95-0.359-1.205c-0.239-0.256-0.635-0.383-1.188-0.383c-0.441,0-0.802,0.118-1.081,0.354
			c-0.279,0.237-0.475,0.547-0.586,0.93l0.008,5.919h-1.939v-5.68c-0.026-1.016-0.545-1.523-1.556-1.523
			c-0.776,0-1.327,0.316-1.651,0.949v6.254h-1.938V61.67H107.462z"/>
		<path fill="#D7EFF7" d="M119.492,65.905c0-0.845,0.167-1.607,0.502-2.286c0.335-0.678,0.806-1.199,1.412-1.563
			c0.606-0.365,1.303-0.547,2.09-0.547c1.165,0,2.11,0.375,2.836,1.125s1.118,1.744,1.177,2.983l0.008,0.455
			c0,0.851-0.164,1.611-0.491,2.281c-0.327,0.671-0.795,1.188-1.404,1.556s-1.313,0.551-2.11,0.551
			c-1.218,0-2.192-0.406-2.924-1.217c-0.731-0.811-1.097-1.893-1.097-3.242V65.905z M121.431,66.073c0,0.888,0.184,1.583,0.55,2.086
			c0.367,0.503,0.878,0.754,1.532,0.754c0.654,0,1.164-0.255,1.528-0.766s0.546-1.258,0.546-2.242c0-0.872-0.188-1.563-0.562-2.074
			c-0.375-0.511-0.885-0.766-1.528-0.766c-0.633,0-1.136,0.251-1.508,0.754C121.617,64.322,121.431,65.073,121.431,66.073z"/>
		<path fill="#D7EFF7" d="M130.956,61.67l0.056,0.996c0.638-0.771,1.476-1.156,2.513-1.156c1.798,0,2.713,1.029,2.745,3.088v5.703
			h-1.938v-5.592c0-0.548-0.119-0.953-0.355-1.217c-0.237-0.264-0.624-0.395-1.161-0.395c-0.782,0-1.364,0.354-1.747,1.061v6.143
			h-1.938V61.67H130.956z"/>
		<path fill="#D7EFF7" d="M141.974,65.922c0-1.341,0.315-2.411,0.945-3.211c0.63-0.801,1.466-1.201,2.509-1.201
			c0.984,0,1.758,0.343,2.322,1.029l0.088-0.869h1.747v8.368c0,1.133-0.353,2.026-1.057,2.681c-0.705,0.654-1.655,0.98-2.852,0.98
			c-0.633,0-1.251-0.131-1.855-0.395s-1.063-0.607-1.376-1.033l0.917-1.164c0.595,0.707,1.33,1.061,2.202,1.061
			c0.644,0,1.151-0.174,1.524-0.522c0.372-0.349,0.558-0.86,0.558-1.536v-0.582c-0.558,0.623-1.303,0.934-2.233,0.934
			c-1.011,0-1.836-0.402-2.477-1.205C142.294,68.453,141.974,67.342,141.974,65.922z M143.904,66.089c0,0.867,0.177,1.55,0.53,2.046
			c0.354,0.498,0.844,0.746,1.472,0.746c0.782,0,1.361-0.334,1.739-1.005v-3.798c-0.367-0.654-0.941-0.98-1.723-0.98
			c-0.638,0-1.134,0.252-1.488,0.758C144.081,64.36,143.904,65.105,143.904,66.089z"/>
		<path fill="#D7EFF7" d="M156.732,70.301c-0.085-0.164-0.16-0.434-0.223-0.805c-0.617,0.643-1.373,0.965-2.266,0.965
			c-0.867,0-1.574-0.248-2.122-0.742s-0.822-1.105-0.822-1.835c0-0.92,0.342-1.626,1.025-2.118c0.683-0.492,1.661-0.738,2.932-0.738
			h1.189v-0.566c0-0.446-0.125-0.804-0.375-1.072s-0.63-0.402-1.141-0.402c-0.441,0-0.803,0.109-1.085,0.33
			c-0.282,0.221-0.422,0.502-0.422,0.842h-1.939c0-0.473,0.157-0.916,0.471-1.328s0.741-0.735,1.281-0.969
			c0.54-0.234,1.142-0.352,1.807-0.352c1.011,0,1.816,0.254,2.417,0.762s0.909,1.223,0.925,2.143v3.893
			c0,0.777,0.109,1.396,0.327,1.859v0.135H156.732z M154.603,68.905c0.383,0,0.743-0.093,1.081-0.279
			c0.338-0.187,0.592-0.437,0.762-0.75v-1.628H155.4c-0.718,0-1.258,0.125-1.619,0.375c-0.362,0.25-0.542,0.604-0.542,1.062
			c0,0.372,0.124,0.669,0.371,0.89C153.856,68.795,154.188,68.905,154.603,68.905z"/>
		<path fill="#D7EFF7" d="M162.237,61.67l0.056,0.9c0.606-0.707,1.436-1.061,2.489-1.061c1.154,0,1.943,0.441,2.369,1.324
			c0.627-0.883,1.51-1.324,2.648-1.324c0.952,0,1.661,0.264,2.126,0.789c0.465,0.527,0.703,1.304,0.714,2.33v5.672h-1.938v-5.615
			c0-0.549-0.12-0.95-0.359-1.205c-0.239-0.256-0.635-0.383-1.188-0.383c-0.441,0-0.802,0.118-1.081,0.354
			c-0.279,0.237-0.475,0.547-0.586,0.93l0.008,5.919h-1.938v-5.68c-0.026-1.016-0.545-1.523-1.556-1.523
			c-0.776,0-1.327,0.316-1.651,0.949v6.254h-1.938V61.67H162.237z"/>
		<path fill="#D7EFF7" d="M178.432,70.461c-1.229,0-2.224-0.387-2.987-1.16c-0.763-0.774-1.145-1.805-1.145-3.092v-0.24
			c0-0.861,0.166-1.631,0.499-2.309c0.333-0.679,0.799-1.206,1.4-1.584c0.601-0.377,1.271-0.566,2.01-0.566
			c1.175,0,2.083,0.375,2.725,1.125c0.641,0.75,0.961,1.811,0.961,3.184V66.6h-5.64c0.059,0.713,0.296,1.276,0.714,1.691
			c0.417,0.414,0.943,0.622,1.576,0.622c0.888,0,1.612-0.358,2.17-1.077l1.045,0.998c-0.346,0.516-0.807,0.916-1.384,1.2
			S179.15,70.461,178.432,70.461z M178.201,63.065c-0.532,0-0.961,0.187-1.289,0.559s-0.536,0.891-0.626,1.556h3.694v-0.144
			c-0.042-0.649-0.215-1.14-0.519-1.472S178.738,63.065,178.201,63.065z"/>
	</g>
</g>
</svg>
